<?xml version="1.0" encoding="UTF-8"?>
<svg width="24px" height="18px" viewBox="0 0 24 18" version="1.1" xmlns="http://www.w3.org/2000/svg" xmlns:xlink="http://www.w3.org/1999/xlink">
    <!-- Generator: Sketch 43.2 (39069) - http://www.bohemiancoding.com/sketch -->
    <title>Combined Shape Copy</title>
    <desc>Created with Sketch.</desc>
    <defs></defs>
    <g id="Desktop" stroke="none" stroke-width="1" fill="none" fill-rule="evenodd">
        <g id="desktop" transform="translate(-374.000000, -395.000000)" fill="#9012FE">
            <path d="M398,400 L398,404 L397.998874,410.330638 C397.998874,411.802558 396.815715,413 395.361351,413 L395.361351,412.930744 L376.637523,412.930744 C375.183205,412.930744 374,411.802558 374,410.330638 L374,397.669362 C374,396.197442 375.183205,395 376.637523,395 L395.361351,395 C396.815715,395 397.998874,396.197442 397.998874,397.669362 L397.998874,400 Z M396,400 L396,398.015595 C396,397.455607 395.543172,397 394.981586,397 L377.018414,397 C376.456871,397 376,397.455607 376,398.015595 L376,400 L396,400 Z M396,404 L376,404 L376,409.984405 C376,410.544393 376.456871,411 377.018414,411 L394.981586,411 C395.543172,411 396,410.544393 396,409.984405 L396,404 Z M378.027722,408.928059 C377.460143,408.928059 377,408.623942 377,408.046173 C377,407.468403 377.460143,407 378.027722,407 L379.00888,407 C379.57646,407 379.953399,407.468403 379.953399,408.046173 C379.953399,408.623942 379.57646,408.928059 379.00888,408.928059 L378.027722,408.928059 Z M384.479795,408.928059 C382.55801,408.928059 381,408.623942 381,408.046173 C381,407.468403 382.55801,407 384.479795,407 L387.801925,407 C389.72371,407 391,407.468403 391,408.046173 C391,408.623942 389.72371,408.928059 387.801925,408.928059 L384.479795,408.928059 Z" id="Combined-Shape-Copy"></path>
        </g>
    </g>
</svg>