<?xml version="1.0" encoding="UTF-8"?>
<svg width="24px" height="18px" viewBox="0 0 24 18" version="1.1" xmlns="http://www.w3.org/2000/svg" xmlns:xlink="http://www.w3.org/1999/xlink">
    <!-- Generator: Sketch 43.2 (39069) - http://www.bohemiancoding.com/sketch -->
    <title>Combined Shape</title>
    <desc>Created with Sketch.</desc>
    <defs></defs>
    <g id="Desktop" stroke="none" stroke-width="1" fill="none" fill-rule="evenodd">
        <g id="desktop" transform="translate(-374.000000, -328.000000)" fill="#9012FE">
            <path d="M395.361351,345.930744 L376.637523,345.930744 C375.183205,345.930744 374,344.802558 374,343.330638 L374,330.669362 C374,329.197442 375.183205,328 376.637523,328 L395.361351,328 C396.815715,328 397.998874,329.197442 397.998874,330.669362 L397.998874,343.330638 C397.998874,344.802558 396.815715,346 395.361351,346 L395.361351,345.930744 Z M377.018414,330 C376.456871,330 376,330.455607 376,331.015595 L376,342.984405 C376,343.544393 376.456871,344 377.018414,344 L394.981586,344 C395.543172,344 396,343.544393 396,342.984405 L396,331.015595 C396,330.455607 395.543172,330 394.981586,330 L377.018414,330 Z M378.027722,341.928059 C377.460143,341.928059 377,341.623942 377,341.046173 C377,340.468403 377.460143,340 378.027722,340 L379.00888,340 C379.57646,340 379.953399,340.468403 379.953399,341.046173 C379.953399,341.623942 379.57646,341.928059 379.00888,341.928059 L378.027722,341.928059 Z M382.027722,341.928059 C381.460143,341.928059 381,341.623942 381,341.046173 C381,340.468403 381.460143,340 382.027722,340 L383.00888,340 C383.57646,340 383.953399,340.468403 383.953399,341.046173 C383.953399,341.623942 383.57646,341.928059 383.00888,341.928059 L382.027722,341.928059 Z M386.027722,341.928059 C385.460143,341.928059 385,341.623942 385,341.046173 C385,340.468403 385.460143,340 386.027722,340 L387.00888,340 C387.57646,340 387.953399,340.468403 387.953399,341.046173 C387.953399,341.623942 387.57646,341.928059 387.00888,341.928059 L386.027722,341.928059 Z M390.027722,341.928059 C389.460143,341.928059 389,341.623942 389,341.046173 C389,340.468403 389.460143,340 390.027722,340 L391.00888,340 C391.57646,340 391.953399,340.468403 391.953399,341.046173 C391.953399,341.623942 391.57646,341.928059 391.00888,341.928059 L390.027722,341.928059 Z M379.00099,336.927509 C377.929185,336.927509 377.016768,336.029933 377.016768,334.925356 C377.016768,333.82078 377.585022,333 378.656827,333 L381.059253,333 C382.131105,333 383,333.895424 383,335 C383,336.104576 382.131105,336.927509 381.059253,336.927509 L379.00099,336.927509 Z" id="Combined-Shape"></path>
        </g>
    </g>
</svg>