<?xml version="1.0" encoding="UTF-8"?>
<svg width="21px" height="21px" viewBox="0 0 21 21" version="1.1" xmlns="http://www.w3.org/2000/svg" xmlns:xlink="http://www.w3.org/1999/xlink">
    <!-- Generator: Sketch 43.2 (39069) - http://www.bohemiancoding.com/sketch -->
    <title>Group 2</title>
    <desc>Created with Sketch.</desc>
    <defs></defs>
    <g id="Desktop" stroke="none" stroke-width="1" fill="none" fill-rule="evenodd">
        <g id="desktop" transform="translate(-137.000000, -260.000000)">
            <g id="Group" transform="translate(138.000000, 261.000000)">
                <g id="Group-2">
                    <ellipse id="Oval-11" stroke="#EC1A4A" stroke-width="2" cx="9.0257649" cy="9.5" rx="9.0257649" ry="9.5"></ellipse>
                    <path d="M11.2033494,6.11623188 C11.3705644,6.0896295 11.5244759,6.12763234 11.6650886,6.23024155 C11.8057012,6.33285075 11.8893074,6.46776084 11.9159098,6.63497585 C11.9425122,6.80219085 11.9064095,6.9580025 11.8076006,7.10241546 L9.64141707,10.0438647 L11.8076006,13.0081159 C11.9520136,13.2133344 11.9653146,13.4299506 11.847504,13.657971 C11.7296935,13.8859915 11.5586807,14 11.3344605,14 C11.1102404,14 10.9297269,13.9125935 10.7929147,13.7377778 L8.87755233,11.1041546 L6.95078905,13.7377778 C6.81397677,13.9125935 6.63346328,14 6.40924316,14 C6.18502303,14 6.01401025,13.8859915 5.89619968,13.657971 C5.7783891,13.4299506 5.7916901,13.2133344 5.93610306,13.0081159 L8.10228663,10.0438647 L5.93610306,7.10241546 C5.83729419,6.9580025 5.80119149,6.80219085 5.82779388,6.63497585 C5.85439627,6.46776084 5.93800252,6.33285075 6.07861514,6.23024155 C6.21922776,6.12763234 6.3750394,6.0896295 6.54605475,6.11623188 C6.7170701,6.14283427 6.85198018,6.22834066 6.95078905,6.37275362 L8.87755233,8.99497585 L10.7929147,6.37275362 C10.8993242,6.22834066 11.0361344,6.14283427 11.2033494,6.11623188 Z" id="X" fill="#EC1A4A"></path>
                </g>
            </g>
        </g>
    </g>
</svg>