<?xml version="1.0" encoding="UTF-8"?>
<svg width="23px" height="20px" viewBox="0 0 23 20" version="1.1" xmlns="http://www.w3.org/2000/svg" xmlns:xlink="http://www.w3.org/1999/xlink">
    <!-- Generator: Sketch 43.2 (39069) - http://www.bohemiancoding.com/sketch -->
    <title>Boleto</title>
    <desc>Created with Sketch.</desc>
    <defs></defs>
    <g id="Desktop" stroke="none" stroke-width="1" fill="none" fill-rule="evenodd">
        <g id="desktop" transform="translate(-373.000000, -194.000000)" fill="#9012FE">
            <g id="Boleto" transform="translate(373.000000, 193.000000)">
                <path d="M0,2.04961095 C0,1.49557281 0.443864822,1.04643616 1,1.04643616 C1.55228475,1.04643616 2,1.50068461 2,2.04961095 L2,19.9968252 C2,20.5508634 1.55613518,21 1,21 C0.44771525,21 0,20.5457516 0,19.9968252 L0,2.04961095 Z M4,1.9940165 C4,1.4405159 4.44831794,0.991815019 5.00045066,0.991815019 L4.93250754,0.991815019 C5.48504118,0.991815019 5.95565549,1.43948254 5.98377105,1.9940165 L5.94918714,1.31190486 C5.97725031,1.86540546 6,2.75628076 6,3.31580447 L6,19.9436807 C6,20.4969033 5.55613518,20.9453789 5,20.9453789 C4.44771525,20.9453789 4,20.5032044 4,19.9436807 L4,3.31580447 C4,2.76258187 4,1.86643882 4,1.31190486 L4,1.9940165 Z M14,2.04390925 C14,1.49228261 14.4438648,1.0224351 15,0.994036291 C15.5522847,0.965834102 16,1.38981497 16,1.94330334 L16,8.52744644 C16,9.07922502 16,9.97455354 16,10.5350666 L16,19.9043973 C16,20.4607788 15.5561352,20.9118151 15,20.9118151 C14.4477153,20.9118151 14,20.4595438 14,19.9130067 L14,2.04390925 Z M9,2.99603978 C9,1.88913701 9.88772964,0.991815019 11,0.991815019 C12.1045695,0.991815019 13,1.8877819 13,2.99603978 L13,18.937591 C13,20.0444938 12.1122704,20.9418158 11,20.9418158 C9.8954305,20.9418158 9,20.0458489 9,18.937591 L9,2.99603978 Z M19,2.99603978 C19,1.88913701 19.8877296,0.991815019 21,0.991815019 C22.1045695,0.991815019 23,1.8877819 23,2.99603978 L23,18.937591 C23,20.0444938 22.1122704,20.9418158 21,20.9418158 C19.8954305,20.9418158 19,20.0458489 19,18.937591 L19,2.99603978 Z" id="Rectangle-47-Copy-6"></path>
            </g>
        </g>
    </g>
</svg>